<svg id="Warstwa_1" data-name="Warstwa 1" xmlns="http://www.w3.org/2000/svg" viewBox="0 0 544.29 250.67"><defs><style>.cls-1{fill:none;}.cls-2{fill:#812529;}</style></defs><title>Obszar roboczy 1</title><path class="cls-1" d="M316,113.14a31.56,31.56,0,0,0-8.92,8.44,11.5,11.5,0,0,0-2.4,6.5,6.51,6.51,0,0,0,2,4.86,6.84,6.84,0,0,0,5,1.94,13.13,13.13,0,0,0,5.62-1.64,37.59,37.59,0,0,0,9.07-6.72q.52-9.49.52-13.37,0-2-.22-5.45A51.53,51.53,0,0,0,316,113.14Z"/><path class="cls-1" d="M396.85,54.08a5.65,5.65,0,0,0,3.81-1.32,4.37,4.37,0,0,0,1.55-3.5V46.82h-.06q-.24.45-1.58.68l-1.61.25-1.7.27a13.25,13.25,0,0,0-1.44.36,4.65,4.65,0,0,0-1.28.55,2.8,2.8,0,0,0-.77.85,2.35,2.35,0,0,0-.34,1.26,2.71,2.71,0,0,0,1,2.2A3.67,3.67,0,0,0,396.85,54.08Z"/><path class="cls-1" d="M227.66,54.08a5.65,5.65,0,0,0,3.81-1.32,4.37,4.37,0,0,0,1.55-3.5V46.82H233q-.24.45-1.58.68l-1.61.25-1.7.27a13.14,13.14,0,0,0-1.44.36,4.67,4.67,0,0,0-1.28.55,2.8,2.8,0,0,0-.77.85,2.35,2.35,0,0,0-.34,1.26,2.71,2.71,0,0,0,1,2.2A3.67,3.67,0,0,0,227.66,54.08Z"/><path class="cls-1" d="M257.08,42.61a4.57,4.57,0,0,0-7,0,7.29,7.29,0,0,0-1.58,3.88h9.94A6.13,6.13,0,0,0,257.08,42.61Z"/><path class="cls-1" d="M324.41,54.08q2.88,0,5-3l-5.3-6.43q-4.34,2.32-4.34,5.27a3.79,3.79,0,0,0,1.38,3A4.8,4.8,0,0,0,324.41,54.08Z"/><path class="cls-1" d="M299.89,53.45a4.23,4.23,0,0,0,3.63-1.8,7.1,7.1,0,0,0,1.31-4.3,8,8,0,0,0-1.23-4.46,4.12,4.12,0,0,0-3.7-1.9,4.29,4.29,0,0,0-3.78,1.86,7.77,7.77,0,0,0-1.28,4.51,7.15,7.15,0,0,0,1.29,4.31A4.36,4.36,0,0,0,299.89,53.45Z"/><path class="cls-1" d="M324.76,42.56q1-.62,1.55-1.1a5.7,5.7,0,0,0,1.16-1.34,3.3,3.3,0,0,0,.57-1.84,2.57,2.57,0,0,0-.8-2,3.17,3.17,0,0,0-4,0,2.58,2.58,0,0,0-.8,2,3.53,3.53,0,0,0,.46,1.58,10,10,0,0,0,.83,1.38Q324.05,41.73,324.76,42.56Z"/><path class="cls-1" d="M363.47,42.61a4.57,4.57,0,0,0-7,0,7.29,7.29,0,0,0-1.58,3.88h9.94A6.14,6.14,0,0,0,363.47,42.61Z"/><path class="cls-1" d="M437.64,54.08a5.65,5.65,0,0,0,3.81-1.32,4.37,4.37,0,0,0,1.55-3.5V46.82h-.06q-.24.45-1.58.68l-1.61.25-1.7.27a13.25,13.25,0,0,0-1.44.36,4.65,4.65,0,0,0-1.28.55,2.8,2.8,0,0,0-.77.85,2.35,2.35,0,0,0-.34,1.26,2.71,2.71,0,0,0,1,2.2A3.67,3.67,0,0,0,437.64,54.08Z"/><path class="cls-1" d="M477.75,47.5l-1.61.25-1.7.27a13.25,13.25,0,0,0-1.44.36,4.65,4.65,0,0,0-1.28.55,2.8,2.8,0,0,0-.77.85,2.35,2.35,0,0,0-.34,1.26,2.71,2.71,0,0,0,1,2.2,3.67,3.67,0,0,0,2.41.83,5.65,5.65,0,0,0,3.81-1.32,4.37,4.37,0,0,0,1.55-3.5V46.82h-.06Q479.08,47.26,477.75,47.5Z"/><path class="cls-1" d="M104.41,129.8q5.08-5.31,8.74-15t3.66-24.15a61.72,61.72,0,0,0-3.36-20.86A44.64,44.64,0,0,0,106,56.74a37.11,37.11,0,0,0-10.87-9.68Q89.47,44,80.88,44A36.41,36.41,0,0,0,62,49.19q-8.82,5.24-14.72,18.17-3.74,8.22-3.74,22.88a67.84,67.84,0,0,0,4.15,23.37A45.84,45.84,0,0,0,59.43,132q4.41,4.11,12.1,6.13a42.9,42.9,0,0,0,7.7.75A40.46,40.46,0,0,0,94,136.38,28.6,28.6,0,0,0,104.41,129.8Z"/><path class="cls-2" d="M214.24,55.65a6,6,0,0,0,4.27-1.58,7.11,7.11,0,0,0,2.07-4.37H218.7a4.87,4.87,0,0,1-1.46,3.12,4.16,4.16,0,0,1-3,1.25,4.63,4.63,0,0,1-4-1.95,8.11,8.11,0,0,1,0-9.19,4.63,4.63,0,0,1,4-1.95q3.54,0,4.34,3.69h1.87a5.72,5.72,0,0,0-2-3.93,7.28,7.28,0,0,0-9.55,1A8.77,8.77,0,0,0,207,47.53a8.77,8.77,0,0,0,1.93,5.79A6.54,6.54,0,0,0,214.24,55.65Z"/><path class="cls-2" d="M227.51,55.65a6.24,6.24,0,0,0,3.29-.74,7.91,7.91,0,0,0,2.31-2.38h.06a3.65,3.65,0,0,0,.45,2,2,2,0,0,0,1.76.67,6.19,6.19,0,0,0,1.22-.12V53.51a1.45,1.45,0,0,1-.6.12,1,1,0,0,1-1.1-1.13V44.35q0-4.94-5.65-4.94a7.08,7.08,0,0,0-4.42,1.26,5,5,0,0,0-1.8,3.88h1.87A3.39,3.39,0,0,1,226,41.86,4.59,4.59,0,0,1,229,41a5.35,5.35,0,0,1,2.95.7A2.71,2.71,0,0,1,233,44.14a1.83,1.83,0,0,1-.55,1.56,3.86,3.86,0,0,1-1.86.52l-.77.09-1.64.19-1.47.25a8,8,0,0,0-1.44.37,11,11,0,0,0-1.15.57,2.79,2.79,0,0,0-1,.83,5,5,0,0,0-.55,1.13,4.45,4.45,0,0,0-.24,1.5,4,4,0,0,0,1.44,3.36A5.83,5.83,0,0,0,227.51,55.65Zm-2.93-5.88a2.8,2.8,0,0,1,.77-.85,4.67,4.67,0,0,1,1.28-.55,13.14,13.14,0,0,1,1.44-.36l1.7-.27,1.61-.25q1.34-.24,1.58-.68H233v2.44a4.37,4.37,0,0,1-1.55,3.5,5.65,5.65,0,0,1-3.81,1.32,3.67,3.67,0,0,1-2.41-.83,2.71,2.71,0,0,1-1-2.2A2.35,2.35,0,0,1,224.58,49.78Z"/><path class="cls-2" d="M239.74,51.94a3.72,3.72,0,0,0,.71,2.71,3.65,3.65,0,0,0,2.62.74l.83,0,.83,0V53.72a14.44,14.44,0,0,1-1.61.09,1.45,1.45,0,0,1-1.22-.54,2.88,2.88,0,0,1-.3-1.49V41.43h3.12V39.86h-3.12V35.25h-1.87v4.61h-2.68v1.58h2.68Z"/><path class="cls-2" d="M253.6,55.65q5.42,0,6.69-5.5h-1.87q-1,3.93-4.82,3.93a4.31,4.31,0,0,1-3.76-1.85A7.12,7.12,0,0,1,248.54,48h11.81a11.35,11.35,0,0,0-.56-4.16,6.89,6.89,0,0,0-2.25-3.18,6.1,6.1,0,0,0-3.94-1.28,6.37,6.37,0,0,0-3.94,1.22,6.74,6.74,0,0,0-2.31,3,10.76,10.76,0,0,0-.68,3.91,9.37,9.37,0,0,0,1.74,5.83A6.11,6.11,0,0,0,253.6,55.65Zm-3.48-13.08a4.57,4.57,0,0,1,7,0,6.13,6.13,0,0,1,1.4,3.85h-9.94A7.29,7.29,0,0,1,250.12,42.58Z"/><path class="cls-2" d="M264.76,47a5.44,5.44,0,0,1,1.61-4,5.21,5.21,0,0,1,4.11-1.47V39.65a5.87,5.87,0,0,0-3.57.91,5.77,5.77,0,0,0-2.23,2.9h-.06v-3.6h-1.73V55.21h1.87Z"/><rect class="cls-2" x="272.28" y="33.97" width="1.87" height="3"/><rect class="cls-2" x="272.28" y="39.86" width="1.87" height="15.35"/><path class="cls-2" d="M279.6,46.25a5.82,5.82,0,0,1,1.34-3.79A4.37,4.37,0,0,1,284.42,41q3.9,0,3.9,4.64v9.58h1.87V45.33a6.71,6.71,0,0,0-1.26-4.42q-1.26-1.5-4.36-1.5a5.52,5.52,0,0,0-3,.86,4.6,4.6,0,0,0-1.9,2.23h-.06V39.86h-1.87V55.21h1.87Z"/><path class="cls-2" d="M299.89,55a5.24,5.24,0,0,0,4.88-3.15h.06V54a6.75,6.75,0,0,1-1.19,4.34,4.56,4.56,0,0,1-3.75,1.46,5.72,5.72,0,0,1-3-.74,3.17,3.17,0,0,1-1.52-2.32h-1.87a4.29,4.29,0,0,0,2,3.47,7.9,7.9,0,0,0,4.36,1.18q3.6,0,5.21-1.89A8.27,8.27,0,0,0,306.71,54V39.86h-1.88V42.5h-.06a5.15,5.15,0,0,0-1.92-2.22,5.24,5.24,0,0,0-3-.88,6.27,6.27,0,0,0-5.07,2.22A8.29,8.29,0,0,0,293,47.15a9,9,0,0,0,1.71,5.71A6.24,6.24,0,0,0,299.89,55Zm-3.78-12.18A4.29,4.29,0,0,1,299.89,41a4.12,4.12,0,0,1,3.7,1.9,8,8,0,0,1,1.23,4.46,7.1,7.1,0,0,1-1.31,4.3,4.23,4.23,0,0,1-3.63,1.8,4.36,4.36,0,0,1-3.76-1.79,7.15,7.15,0,0,1-1.29-4.31A7.77,7.77,0,0,1,296.11,42.85Z"/><path class="cls-2" d="M324.35,55.65a7.73,7.73,0,0,0,6.25-3.21l2.26,2.77h2.35l-3.57-4.31a10.56,10.56,0,0,0,1.25-5.09H331a8.29,8.29,0,0,1-.63,3.57l-4.64-5.59a14,14,0,0,0,3.08-2.48,4.41,4.41,0,0,0,1.09-3,4,4,0,0,0-1.35-3.11,5.25,5.25,0,0,0-6.69,0,4,4,0,0,0-1.35,3.11,4.72,4.72,0,0,0,.07.83,3.85,3.85,0,0,0,.25.83l.31.71a4.83,4.83,0,0,0,.46.76l.48.65.55.7.49.62q-5.21,2.8-5.21,6.31a5.51,5.51,0,0,0,1.8,4.37A6.76,6.76,0,0,0,324.35,55.65Zm-1.5-15.8a3.53,3.53,0,0,1-.46-1.58,2.58,2.58,0,0,1,.8-2,3.17,3.17,0,0,1,4,0,2.57,2.57,0,0,1,.8,2,3.3,3.3,0,0,1-.57,1.84,5.7,5.7,0,0,1-1.16,1.34q-.6.48-1.55,1.1-.71-.83-1.09-1.32A10,10,0,0,1,322.84,39.86Zm1.29,4.76,5.3,6.43q-2.14,3-5,3a4.8,4.8,0,0,1-3.23-1.19,3.79,3.79,0,0,1-1.38-3Q319.8,46.94,324.14,44.62Z"/><path class="cls-2" d="M346.87,47a5.44,5.44,0,0,1,1.61-4,5.22,5.22,0,0,1,4.11-1.47V39.65a5.87,5.87,0,0,0-3.57.91,5.78,5.78,0,0,0-2.23,2.9h-.06v-3.6H345V55.21h1.87Z"/><path class="cls-2" d="M360,55.65q5.41,0,6.69-5.5h-1.87q-1,3.93-4.82,3.93a4.31,4.31,0,0,1-3.76-1.85A7.13,7.13,0,0,1,354.93,48h11.81a11.32,11.32,0,0,0-.57-4.16,6.88,6.88,0,0,0-2.25-3.18A6.09,6.09,0,0,0,360,39.41,6.37,6.37,0,0,0,356,40.63a6.74,6.74,0,0,0-2.31,3,10.77,10.77,0,0,0-.68,3.91,9.37,9.37,0,0,0,1.74,5.83A6.11,6.11,0,0,0,360,55.65Zm-3.48-13.08a4.57,4.57,0,0,1,7,0,6.14,6.14,0,0,1,1.4,3.85h-9.94A7.29,7.29,0,0,1,356.51,42.58Z"/><path class="cls-2" d="M377.71,53.35a5.8,5.8,0,0,1-2.9.73,4.89,4.89,0,0,1-3.17-1,3.77,3.77,0,0,1-1.35-2.84h-1.87q.48,5.42,6.31,5.42a8,8,0,0,0,4.3-1.16A3.81,3.81,0,0,0,380.88,51a3.62,3.62,0,0,0-1.26-2.92,6,6,0,0,0-3.11-1.34l-2.5-.57q-3.19-.8-3.18-2.59a2.16,2.16,0,0,1,1.09-2,4.92,4.92,0,0,1,2.54-.64,4.58,4.58,0,0,1,2.83.85,3.09,3.09,0,0,1,1.19,2.51h1.87a4.8,4.8,0,0,0-1.67-3.67,6.05,6.05,0,0,0-4-1.26,7.52,7.52,0,0,0-4,1.07,3.56,3.56,0,0,0-1.72,3.24A3.26,3.26,0,0,0,370,46.4a8.22,8.22,0,0,0,3.2,1.43l2.41.54a7.89,7.89,0,0,1,2.47,1,2,2,0,0,1,.89,1.81A2.36,2.36,0,0,1,377.71,53.35Z"/><path class="cls-2" d="M384.68,51.94a3.73,3.73,0,0,0,.71,2.71,3.65,3.65,0,0,0,2.62.74l.83,0,.83,0V53.72a14.43,14.43,0,0,1-1.61.09,1.45,1.45,0,0,1-1.22-.54,2.88,2.88,0,0,1-.3-1.49V41.43h3.12V39.86h-3.12V35.25h-1.87v4.61H382v1.58h2.68Z"/><path class="cls-2" d="M396.7,55.65a6.24,6.24,0,0,0,3.29-.74,7.9,7.9,0,0,0,2.31-2.38h.06a3.65,3.65,0,0,0,.45,2,2,2,0,0,0,1.76.67,6.19,6.19,0,0,0,1.22-.12V53.51a1.44,1.44,0,0,1-.59.12,1,1,0,0,1-1.1-1.13V44.35q0-4.94-5.65-4.94A7.08,7.08,0,0,0,394,40.67a5,5,0,0,0-1.8,3.88h1.87a3.39,3.39,0,0,1,1.16-2.69,4.59,4.59,0,0,1,2.94-.88,5.36,5.36,0,0,1,2.95.7,2.71,2.71,0,0,1,1.07,2.45,1.83,1.83,0,0,1-.55,1.56,3.86,3.86,0,0,1-1.86.52l-.77.09-1.64.19-1.47.25a8,8,0,0,0-1.44.37,10.82,10.82,0,0,0-1.15.57,2.78,2.78,0,0,0-1,.83,5,5,0,0,0-.55,1.13,4.49,4.49,0,0,0-.24,1.5A4,4,0,0,0,393,54.52,5.83,5.83,0,0,0,396.7,55.65Zm-2.93-5.88a2.8,2.8,0,0,1,.77-.85,4.65,4.65,0,0,1,1.28-.55,13.25,13.25,0,0,1,1.44-.36l1.7-.27,1.61-.25q1.34-.24,1.58-.68h.06v2.44a4.37,4.37,0,0,1-1.55,3.5,5.65,5.65,0,0,1-3.81,1.32,3.67,3.67,0,0,1-2.41-.83,2.71,2.71,0,0,1-1-2.2A2.35,2.35,0,0,1,393.77,49.78Z"/><path class="cls-2" d="M413.19,55.65a6.06,6.06,0,0,0,3.15-.85,5.32,5.32,0,0,0,2.14-2.37h.06v2.77h1.72V39.86h-1.87v8.06a7.8,7.8,0,0,1-1.17,4.36,3.85,3.85,0,0,1-3.44,1.8,4,4,0,0,1-3.11-1,4.85,4.85,0,0,1-1-3.18v-10H407.8v10Q407.8,55.66,413.19,55.65Z"/><path class="cls-2" d="M425.68,47a5.44,5.44,0,0,1,1.61-4,5.22,5.22,0,0,1,4.11-1.47V39.65a5.87,5.87,0,0,0-3.57.91,5.78,5.78,0,0,0-2.23,2.9h-.06v-3.6h-1.72V55.21h1.87Z"/><path class="cls-2" d="M437.49,55.65a6.24,6.24,0,0,0,3.29-.74,7.9,7.9,0,0,0,2.31-2.38h.06a3.65,3.65,0,0,0,.45,2,2,2,0,0,0,1.76.67,6.19,6.19,0,0,0,1.22-.12V53.51a1.44,1.44,0,0,1-.59.12,1,1,0,0,1-1.1-1.13V44.35q0-4.94-5.65-4.94a7.08,7.08,0,0,0-4.42,1.26,5,5,0,0,0-1.8,3.88h1.87A3.39,3.39,0,0,1,436,41.86,4.59,4.59,0,0,1,439,41a5.36,5.36,0,0,1,2.95.7A2.71,2.71,0,0,1,443,44.14a1.83,1.83,0,0,1-.55,1.56,3.86,3.86,0,0,1-1.86.52l-.77.09-1.64.19-1.47.25a8,8,0,0,0-1.44.37,10.82,10.82,0,0,0-1.15.57,2.78,2.78,0,0,0-1,.83,5,5,0,0,0-.55,1.13,4.49,4.49,0,0,0-.24,1.5,4,4,0,0,0,1.44,3.36A5.83,5.83,0,0,0,437.49,55.65Zm-2.93-5.88a2.8,2.8,0,0,1,.77-.85,4.65,4.65,0,0,1,1.28-.55,13.25,13.25,0,0,1,1.44-.36l1.7-.27,1.61-.25q1.34-.24,1.58-.68H443v2.44a4.37,4.37,0,0,1-1.55,3.5,5.65,5.65,0,0,1-3.81,1.32,3.67,3.67,0,0,1-2.41-.83,2.71,2.71,0,0,1-1-2.2A2.35,2.35,0,0,1,434.56,49.78Z"/><path class="cls-2" d="M455.11,55.65a6,6,0,0,0,4.27-1.58,7.11,7.11,0,0,0,2.07-4.37h-1.87a4.87,4.87,0,0,1-1.46,3.12,4.16,4.16,0,0,1-3,1.25,4.63,4.63,0,0,1-4-1.95,8.11,8.11,0,0,1,0-9.19,4.63,4.63,0,0,1,4-1.95q3.54,0,4.34,3.69h1.87a5.72,5.72,0,0,0-2-3.93,7.28,7.28,0,0,0-9.55,1,8.77,8.77,0,0,0-1.93,5.79,8.77,8.77,0,0,0,1.93,5.79A6.54,6.54,0,0,0,455.11,55.65Z"/><path class="cls-2" d="M461.38,60.83l.65,0,.65,0q3.27,0,3.27-4.25V39.86h-1.87V57.08a3.27,3.27,0,0,1-.34,1.67,1.46,1.46,0,0,1-1.35.57,6.28,6.28,0,0,1-1,0Z"/><rect class="cls-2" x="464.09" y="33.97" width="1.87" height="3"/><path class="cls-2" d="M483,53.51a1.44,1.44,0,0,1-.59.12,1,1,0,0,1-1.1-1.13V44.35q0-4.94-5.65-4.94a7.08,7.08,0,0,0-4.42,1.26,5,5,0,0,0-1.8,3.88h1.87a3.39,3.39,0,0,1,1.16-2.69,4.59,4.59,0,0,1,2.94-.88,5.36,5.36,0,0,1,2.95.7,2.71,2.71,0,0,1,1.07,2.45,1.83,1.83,0,0,1-.55,1.56,3.86,3.86,0,0,1-1.86.52l-.77.09-1.64.19-1.47.25a8,8,0,0,0-1.44.37,10.82,10.82,0,0,0-1.15.57,2.78,2.78,0,0,0-1,.83,5,5,0,0,0-.55,1.13,4.49,4.49,0,0,0-.24,1.5,4,4,0,0,0,1.44,3.36,5.83,5.83,0,0,0,3.7,1.13,6.24,6.24,0,0,0,3.29-.74,7.9,7.9,0,0,0,2.31-2.38h.06a3.65,3.65,0,0,0,.45,2,2,2,0,0,0,1.76.67,6.19,6.19,0,0,0,1.22-.12Zm-3.57-4.25a4.37,4.37,0,0,1-1.55,3.5A5.65,5.65,0,0,1,474,54.08a3.67,3.67,0,0,1-2.41-.83,2.71,2.71,0,0,1-1-2.2,2.35,2.35,0,0,1,.34-1.26,2.8,2.8,0,0,1,.77-.85,4.65,4.65,0,0,1,1.28-.55,13.25,13.25,0,0,1,1.44-.36l1.7-.27,1.61-.25q1.34-.24,1.58-.68h.06Z"/><path class="cls-2" d="M142.29,139.07l12.55-.6,9.79.34q7.32.26,7.85.26a1.74,1.74,0,0,0,1.23-.34,1.61,1.61,0,0,0,.34-1.16,1.08,1.08,0,0,0-.6-1q-.82-.52-5.42-1t-5.49-1.87q-.67-1-.67-9.35,0-.45.22-7.4.37-11.81.37-73.2V39.55h-3.53q-7.36,2.47-11.11,3.66-2.54.75-4.63,1.42v1.64q1.49.75,5.53,2.39a8.23,8.23,0,0,1,3.51,2.28,6.69,6.69,0,0,1,.82,3.77l-.22,8.74.08,17.78L152.68,99l.08,17.18q0,12.48-.3,15.17a3.76,3.76,0,0,1-.93,2.5q-.71.56-5.6,1.38a27.22,27.22,0,0,0-5.38,1.17,1.27,1.27,0,0,0-.49,1.11,1.33,1.33,0,0,0,.45,1.07A2.39,2.39,0,0,0,142.29,139.07Z"/><path class="cls-2" d="M191.45,53.74a6.72,6.72,0,0,0,4.86-2.05,6.1,6.1,0,0,0,2.09-4.37A6,6,0,0,0,196.31,43a6.78,6.78,0,0,0-4.86-2,6.46,6.46,0,0,0-4.59,1.79A5.65,5.65,0,0,0,185,47a6.56,6.56,0,0,0,1.87,4.86A6.29,6.29,0,0,0,191.45,53.74Z"/><path class="cls-2" d="M175.91,139.07a40.42,40.42,0,0,1,4.33-.37q11-.37,12-.37,2,0,8.22.52,4.55.3,7.47.37a2.45,2.45,0,0,0,.37-1.12,2.36,2.36,0,0,0-.22-.9,46.12,46.12,0,0,0-4.48-1.42q-4.78-1.34-5.75-2.43t-.9-3.85l.22-22.79-.07-21.52v-4q.15-3,.15-3.36,0-1.64-.3-5.23l-.9-.08a9.21,9.21,0,0,0-1.42.15,25.37,25.37,0,0,1-5,5.55A24.47,24.47,0,0,1,184,81.94q-.37.23-5.23,1.65l-.08,2.2q5.23,1.19,6.84,2.35a5.69,5.69,0,0,1,2,2.05,26.33,26.33,0,0,1,.45,6.42q0,25.74-.15,31.48,0,3.43-1.27,5a4.85,4.85,0,0,1-3.14,1.49q-7.32,1.57-7.62,1.72-1.42.6-1.42,1.64a1.64,1.64,0,0,0,.37.9A5.17,5.17,0,0,0,175.91,139.07Z"/><path class="cls-2" d="M275.36,116.7v-11.3q0-13.24-1.31-17.69A14.92,14.92,0,0,0,268.33,80a17.11,17.11,0,0,0-10.54-3.29,21,21,0,0,0-5.23.6,44.23,44.23,0,0,0-8.37,3A48.93,48.93,0,0,0,235,85.75q-1.2.9-2.09,1.5l-.08-1.35V81q0-1.5-.22-5l-2.54-.07A26.84,26.84,0,0,1,222.91,85a22.54,22.54,0,0,1-8.37,3.9v2.73q5.45.82,7.47,2.9,1.19,1.34,1.2,6l.15,22.86q0,2.31-.08,3.8l-.15,2.68q0,3.2-.93,4.1t-5.64,1.57a36.25,36.25,0,0,0-4.33.89,7.2,7.2,0,0,0-.23,1.49l.15,1H214q1.49,0,7.1-.07l16.14.22h7.85l.07-1.49a2.81,2.81,0,0,0-2-1.49q-.75-.15-3.1-.82t-4.15-1a4.94,4.94,0,0,1-2.39-1,3.32,3.32,0,0,1-.52-1.64q-.38-2.91-.37-15.84l-.22-16.51q0-2.54.15-6.13a33.09,33.09,0,0,1,9.27-6.61,23.14,23.14,0,0,1,9.79-2.2q6.5,0,10.39,3.67t3.88,13.32l-.15,6v3.89q.07,13.69.3,17.13.15,1.57.15,2.09a7.07,7.07,0,0,1-.9,3,8.29,8.29,0,0,1-2,1.2,12.56,12.56,0,0,1-3,.45,18.06,18.06,0,0,0-5.68,1.2,2.35,2.35,0,0,0-.52,1.2l.45,1.57q4.56.22,9.94.08l9.71-.22,9.86.15h1.42a5.24,5.24,0,0,0,.45-1.87v-.6q-1.2-1.34-8.37-2.32a4.46,4.46,0,0,1-1.94-1.95,29.29,29.29,0,0,1-.45-6.66q0-3.29.11-5.83T275.36,116.7Z"/><path class="cls-2" d="M293.14,101.41a5,5,0,0,0,3,1q1.94,0,5.15-2.09A15.84,15.84,0,0,0,303,96.11q1.42-7,4.2-9.56a14.25,14.25,0,0,1,9.67-4,9.14,9.14,0,0,1,7.61,3.36q2.66,3.36,2.66,12.85,0,2.92-.15,5.38-1.72.9-9.36,4.11-10.86,4.56-17.19,11.73t-6.33,12.33a8.08,8.08,0,0,0,2.2,5.86,8,8,0,0,0,6,2.28,36,36,0,0,0,9-1,34.4,34.4,0,0,0,6.73-3.21l8.37-5.83q.67,5,2.32,6.95,2.69,3.29,8.07,3.29a9.27,9.27,0,0,0,4.93-1.12,16.06,16.06,0,0,0,5.15-5.45q1.79-2.84,1.79-4a4,4,0,0,0-.45-1.42,6.88,6.88,0,0,0-1.64.52l-.9,1.2a5.85,5.85,0,0,1-4.86,2.84,4.48,4.48,0,0,1-3.36-1.49,5.51,5.51,0,0,1-1.42-4q0-1,.08-3.21.07-1.2.07-2.92L336.1,113l.22-11.88a116.94,116.94,0,0,0-.3-11.73A13.85,13.85,0,0,0,327.58,79Q324.44,77.8,318,77.8q-4.71,0-11,3.4a27.45,27.45,0,0,0-10.46,10.24q-4.15,6.84-4.15,8.78A1.47,1.47,0,0,0,293.14,101.41Zm33.17,25.1a37.59,37.59,0,0,1-9.07,6.72,13.13,13.13,0,0,1-5.62,1.64,6.84,6.84,0,0,1-5-1.94,6.51,6.51,0,0,1-2-4.86,11.5,11.5,0,0,1,2.4-6.5,31.56,31.56,0,0,1,8.92-8.44,51.53,51.53,0,0,1,10.65-5.45q.22,3.44.22,5.45Q326.83,117,326.31,126.51Z"/><path class="cls-2" d="M374.2,92.15l.07-1.27q0-12.85-.45-16.59l-2.54-.07a28,28,0,0,1-6.35,8.84q-2.69,2.32-10.54,5.54l-.3,2.28a18.39,18.39,0,0,0,4,1q4.33.6,5.38,1.64t1.35,5q.3,3.91.3,29.28,0,4.77-.45,5.74a2.13,2.13,0,0,1-1,1l-6.2,1.12-4.41.89a3.43,3.43,0,0,0-.67,1.57l.3,1,12.55-.22,4.11-.22H377l4.56-.08,3.14.08,8.29.15a2.2,2.2,0,0,0,.6-1.2,1.21,1.21,0,0,0-.67-1.12,9.19,9.19,0,0,0-4.48-.9q-.52-.07-1.57-.15-1.5-.3-9.56-1a4.48,4.48,0,0,1-1.49-1.27,11.19,11.19,0,0,1-.6-3.29L375,115l-.37-12.36a13.74,13.74,0,0,1,2.32-7q3-5.08,5.08-6.72a4.71,4.71,0,0,1,2.91-.67,18.08,18.08,0,0,1,4.63,1.27,17.8,17.8,0,0,0,4.71,1.27,6.61,6.61,0,0,0,4.63-1.87,5.2,5.2,0,0,0,1.49-4,7.57,7.57,0,0,0-2.09-5.42,7.09,7.09,0,0,0-5.38-2.2q-2.54,0-7.77,3.14a11.31,11.31,0,0,0-2,1.87l-1.72,1.72a43.28,43.28,0,0,0-7.1,9.49A10.26,10.26,0,0,1,374.2,92.15Z"/><path class="cls-2" d="M469.91,132.19a29.3,29.3,0,0,1-.45-6.66q0-3.29.11-5.83t.11-3v-11.3q0-13.24-1.31-17.69A14.92,14.92,0,0,0,462.66,80a17.11,17.11,0,0,0-10.54-3.29,21,21,0,0,0-5.23.6,44.23,44.23,0,0,0-8.37,3,48.93,48.93,0,0,0-9.19,5.51q-1.2.9-2.09,1.5l-.08-1.35V81q0-1.5-.22-5l-2.54-.07A26.84,26.84,0,0,1,417.24,85a22.54,22.54,0,0,1-8.37,3.9v2.73q5.45.82,7.47,2.9,1.19,1.34,1.2,6l.15,22.86q0,2.31-.08,3.8l-.15,2.68q0,3.2-.93,4.1t-5.64,1.57a36.24,36.24,0,0,0-4.33.89,7.2,7.2,0,0,0-.23,1.49l.15,1h1.87q1.49,0,7.1-.07l16.14.22h7.85l.07-1.49a2.81,2.81,0,0,0-2-1.49q-.75-.15-3.1-.82t-4.15-1a4.94,4.94,0,0,1-2.39-1,3.32,3.32,0,0,1-.52-1.64q-.38-2.91-.37-15.84l-.22-16.51q0-2.54.15-6.13a33.09,33.09,0,0,1,9.27-6.61,23.14,23.14,0,0,1,9.79-2.2q6.5,0,10.39,3.67t3.88,13.32l-.15,6v3.89q.07,13.69.3,17.13.15,1.57.15,2.09a7.07,7.07,0,0,1-.9,3,8.29,8.29,0,0,1-2,1.2,12.56,12.56,0,0,1-3,.45,18.06,18.06,0,0,0-5.68,1.2,2.35,2.35,0,0,0-.52,1.2l.45,1.57q4.56.22,9.94.08l9.71-.22,9.86.15h1.42a5.24,5.24,0,0,0,.45-1.87v-.6q-1.2-1.34-8.37-2.32A4.46,4.46,0,0,1,469.91,132.19Z"/><path class="cls-2" d="M498.9,53.74a6.72,6.72,0,0,0,4.86-2.05,6.1,6.1,0,0,0,2.09-4.37A6,6,0,0,0,503.76,43a6.78,6.78,0,0,0-4.86-2,6.46,6.46,0,0,0-4.59,1.79A5.65,5.65,0,0,0,492.4,47a6.56,6.56,0,0,0,1.87,4.86A6.29,6.29,0,0,0,498.9,53.74Z"/><path class="cls-2" d="M515.49,137.2a46.12,46.12,0,0,0-4.48-1.42q-4.78-1.34-5.75-2.43t-.9-3.85l.22-22.79L504.5,85.2v-4q.15-3,.15-3.36,0-1.64-.3-5.23l-.9-.08a9.21,9.21,0,0,0-1.42.15,25.37,25.37,0,0,1-5,5.55,24.47,24.47,0,0,1-5.64,3.67q-.37.23-5.23,1.65l-.08,2.2Q491.36,87,493,88.15a5.69,5.69,0,0,1,2,2.05,26.33,26.33,0,0,1,.45,6.42q0,25.74-.15,31.48,0,3.43-1.27,5a4.85,4.85,0,0,1-3.14,1.49q-7.32,1.57-7.62,1.72-1.42.6-1.42,1.64a1.64,1.64,0,0,0,.37.9,5.17,5.17,0,0,0,1.2.22,40.42,40.42,0,0,1,4.33-.37q11-.37,12-.37,2,0,8.22.52,4.55.3,7.47.37a2.45,2.45,0,0,0,.37-1.12A2.36,2.36,0,0,0,515.49,137.2Z"/><path class="cls-2" d="M376.62,191.52A352.73,352.73,0,0,1,330.43,183c-.26-.16-11.08-6.67-75.59-11.67-64.95-5-136.25.72-165.4-29.43l-.42-.47a12.61,12.61,0,0,1,4-1q3.88-.45,10.72-3.66A47.08,47.08,0,0,0,117,127a50.1,50.1,0,0,0,10.57-16.74,53,53,0,0,0,4.11-19.84,50.53,50.53,0,0,0-7.92-27.35,48.91,48.91,0,0,0-17.15-16.36,47.37,47.37,0,0,0-24.17-6.2,57,57,0,0,0-25.55,5.75Q42.32,53.82,35.45,67a56.63,56.63,0,0,0-6.87,26.3,46.28,46.28,0,0,0,5.57,21.74,48.88,48.88,0,0,0,16.06,17.78,55,55,0,0,0,23.57,9,76.57,76.57,0,0,0,9.94,9.49q5.29,4.23,10.12,7.44a59.09,59.09,0,0,0,13.35,7.33,80.84,80.84,0,0,0,9.67,3.43c1.35.38,2.65.71,3.93,1l1.41.38c.61.11,1.26.21,1.95.31a49,49,0,0,0,8.67.89H133c26.9,1.93,81.68,1.1,136.43,4.87,39.34,2.72,52.06,5.93,56,8,7.24,12.68,29.82,27.66,57.84,31,34,4,63.33-9.55,67-23.8C429.67,194.77,404.08,194.75,376.62,191.52ZM79.23,138.92a42.9,42.9,0,0,1-7.7-.75q-7.7-2-12.1-6.13a45.84,45.84,0,0,1-11.77-18.43,67.84,67.84,0,0,1-4.15-23.37q0-14.65,3.74-22.88Q53.16,54.42,62,49.19A36.41,36.41,0,0,1,80.88,44q8.59,0,14.23,3.1A37.11,37.11,0,0,1,106,56.74a44.64,44.64,0,0,1,7.47,13.09,61.72,61.72,0,0,1,3.36,20.86q0,14.51-3.66,24.15t-8.74,15A28.6,28.6,0,0,1,94,136.38,40.46,40.46,0,0,1,79.23,138.92Z"/></svg>